<svg width="128" height="128" viewBox="0 0 128 128" xmlns="http://www.w3.org/2000/svg">
<defs><linearGradient id="g" x1="0" x2="1"><stop stop-color="#B9781D"/><stop offset=".5" stop-color="#FFE5A0"/><stop offset="1" stop-color="#C58B2F"/></linearGradient></defs>
<rect width="128" height="128" rx="28" fill="#07111F"/>
<path d="M 64.00 3.00 L 68.10 16.72 L 80.07 8.85 L 74.39 22.00 L 88.62 23.66 L 75.82 30.08 L 85.65 40.50 L 71.71 37.19 L 72.55 51.49 L 64.00 40.00 L 55.45 51.49 L 56.29 37.19 L 42.35 40.50 L 52.18 30.08 L 39.38 23.66 L 53.61 22.00 L 47.93 8.85 L 59.90 16.72 Z" fill="url(#g)" stroke="#FFE6A0" stroke-width="1"/>
<path d="M64 50 L64 103" stroke="#F8FAFC" stroke-width="10" stroke-linecap="round"/>
<path d="M32 60 C45 49,54 47,64 47 C74 47,83 49,96 60" stroke="url(#g)" stroke-width="6" fill="none" stroke-linecap="round"/>
<path d="M32 60 L22 82 M32 60 L42 82 M96 60 L86 82 M96 60 L106 82" stroke="url(#g)" stroke-width="3"/>
<path d="M15 82 C23 92,41 92,49 82 Z M79 82 C87 92,105 92,113 82 Z" fill="url(#g)"/>
</svg>