<svg width="540" height="180" viewBox="0 0 540 180" xmlns="http://www.w3.org/2000/svg" role="img" aria-labelledby="title desc">
<title>Jus 9 Tecnologia Jurídica</title>
<desc>Logotipo textual da Jus 9 com estrela de nove pontas, eixo, arcos desarmados e balança simbólica, sem pirâmide.</desc>
<defs>
  <linearGradient id="gold" x1="0" x2="1">
    <stop offset="0%" stop-color="#C58B2F"/>
    <stop offset="45%" stop-color="#FFE7A6"/>
    <stop offset="100%" stop-color="#A96D16"/>
  </linearGradient>
  <linearGradient id="silver" x1="0" x2="1">
    <stop offset="0%" stop-color="#E8EDF6"/>
    <stop offset="50%" stop-color="#FFFFFF"/>
    <stop offset="100%" stop-color="#9AA6B8"/>
  </linearGradient>
</defs>
<rect width="540" height="180" fill="none"/>
<g transform="translate(20,24)">
  <text x="0" y="72" font-family="Inter, Arial, sans-serif" font-weight="900" font-size="76" letter-spacing="1">
    <tspan fill="url(#silver)">JUS</tspan><tspan fill="url(#gold)"> 9</tspan>
  </text>
  <line x1="3" y1="98" x2="44" y2="98" stroke="url(#gold)" stroke-width="3" stroke-linecap="round"/>
  <text x="58" y="107" font-family="Inter, Arial, sans-serif" font-weight="600" font-size="18" letter-spacing="7" fill="#E7C36C">TECNOLOGIA JURÍDICA</text>
  <line x1="360" y1="98" x2="402" y2="98" stroke="url(#gold)" stroke-width="3" stroke-linecap="round"/>
</g>
<g transform="translate(422,18)" fill="none" stroke-linecap="round" stroke-linejoin="round">
  <path d="M 55.00 16.00 L 59.79 30.84 L 73.00 22.55 L 67.12 37.00 L 82.57 39.14 L 68.79 46.43 L 79.25 58.00 L 64.00 54.72 L 64.58 70.31 L 55.00 58.00 L 45.42 70.31 L 46.00 54.72 L 30.75 58.00 L 41.21 46.43 L 27.43 39.14 L 42.88 37.00 L 37.00 22.55 L 50.21 30.84 Z" fill="url(#gold)" stroke="#FFE6A0" stroke-width="1.2"/>
  <path d="M55 70 L55 135" stroke="url(#silver)" stroke-width="8"/>
  <path d="M55 70 L55 135" stroke="#0B1320" stroke-width="2"/>
  <path d="M28 84 C40 72, 48 68, 55 68 C62 68, 70 72, 82 84" stroke="url(#gold)" stroke-width="5.5"/>
  <path d="M12 90 C27 78, 40 75, 55 75 C70 75, 83 78, 98 90" stroke="url(#gold)" stroke-width="4.6"/>
  <path d="M12 90 L2 118 M12 90 L22 118 M98 90 L88 118 M98 90 L108 118" stroke="url(#gold)" stroke-width="2.4"/>
  <path d="M0 118 C8 128,22 128,30 118 Z" fill="url(#gold)" stroke="#FFE6A0" stroke-width="1"/>
  <path d="M80 118 C88 128,102 128,110 118 Z" fill="url(#gold)" stroke="#FFE6A0" stroke-width="1"/>
  <path d="M43 100 C29 112,31 124,46 130 M67 100 C81 112,79 124,64 130" stroke="url(#gold)" stroke-width="4.8"/>
  <path d="M46 135 C52 140,58 140,64 135" stroke="url(#silver)" stroke-width="5"/>
</g>
</svg>